<svg width="24" height="21" viewBox="0 0 24 21" fill="none" xmlns="http://www.w3.org/2000/svg">
<path d="M6.89337 1.8723C6.95808 1.34593 7.22919 0.866819 7.6471 0.540316C8.065 0.213813 8.59548 0.066657 9.12186 0.131208L21.7549 1.68235C22.2813 1.74706 22.7604 2.01818 23.0869 2.43608C23.4134 2.85399 23.5606 3.38446 23.496 3.91085L21.9449 16.5439C21.8719 17.0632 21.5979 17.5331 21.1819 17.8524C20.7659 18.1716 20.2411 18.3147 19.7206 18.2508C19.2001 18.1869 18.7255 17.9211 18.399 17.5107C18.0726 17.1002 17.9204 16.578 17.9753 16.0565L18.8025 8.32147L3.83027 20.019C3.41229 20.3456 2.88169 20.4928 2.35521 20.4281C1.82873 20.3635 1.3495 20.0923 1.02293 19.6743C0.696362 19.2564 0.549215 18.7258 0.613858 18.1993C0.678502 17.6728 0.949641 17.1936 1.36763 16.867L16.3398 5.16943L8.63446 4.10079C8.10809 4.03608 7.62898 3.76496 7.30247 3.34706C6.97597 2.92916 6.82882 2.39868 6.89337 1.8723Z" fill="white"/>
</svg>
