<svg width="30" height="30" viewBox="0 0 30 30" fill="none" xmlns="http://www.w3.org/2000/svg">
<path d="M11.7217 20.5H9.055V11.835H11.7217V20.5ZM10.3883 10.7233C9.42611 10.7233 8.945 10.2789 8.945 9.39C8.94202 9.21173 8.97772 9.03493 9.04965 8.87179C9.12159 8.70864 9.22803 8.56304 9.36167 8.445C9.63978 8.18602 10.0084 8.04657 10.3883 8.05667C11.3506 8.05667 11.8317 8.50167 11.8317 9.39167C11.8317 10.7267 11.3517 10.7233 10.3883 10.7233ZM21.6117 20.5H18.89V15.6667C18.89 14.4078 18.445 13.7783 17.555 13.7783C16.8528 13.7783 16.3894 14.13 16.165 14.8333C16.0928 14.9456 16.0561 15.1678 16.055 15.5V20.5H13.3333V14.6117C13.3333 13.2783 13.315 12.3528 13.2783 11.835H15.6117L15.7783 13C16.39 12.0733 17.2783 11.6117 18.5 11.6117C19.4278 11.6117 20.1778 11.9356 20.75 12.5833C21.3256 13.2311 21.6133 14.1667 21.6133 15.39V20.5H21.6117ZM15 30C6.72833 30 0 23.2717 0 15C0 6.72833 6.72833 0 15 0C23.2717 0 30 6.72833 30 15C30 23.2717 23.2717 30 15 30ZM15 3.33333C8.56833 3.33333 3.33333 8.56833 3.33333 15C3.33333 21.4317 8.56833 26.6667 15 26.6667C21.4317 26.6667 26.6667 21.4317 26.6667 15C26.6667 8.56833 21.4317 3.33333 15 3.33333Z" fill="#7C7C7C"/>
</svg>
