<svg width="24" height="24" viewBox="0 0 24 24" fill="none" xmlns="http://www.w3.org/2000/svg">
<path d="M10.554 6.24003L7.17099 2.33503C6.78099 1.88503 6.06599 1.88703 5.61299 2.34103L2.83099 5.12803C2.00299 5.95703 1.76599 7.18803 2.24499 8.17503C5.10615 14.1003 9.88471 18.8856 15.806 21.755C16.792 22.234 18.022 21.997 18.85 21.168L21.658 18.355C22.113 17.9 22.114 17.181 21.66 16.791L17.74 13.426C17.33 13.074 16.693 13.12 16.282 13.532L14.918 14.898C14.8483 14.9715 14.7564 15.02 14.6564 15.0359C14.5564 15.0518 14.454 15.0343 14.365 14.986C12.1355 13.702 10.2861 11.8502 9.00499 9.61903C8.95651 9.52991 8.93886 9.42726 8.95477 9.32706C8.97069 9.22687 9.01928 9.13474 9.09299 9.06503L10.453 7.70403C10.865 7.29003 10.91 6.65103 10.554 6.24003Z" stroke="black" stroke-width="2" stroke-linecap="round" stroke-linejoin="round"/>
</svg>
