<svg width="35" height="35" viewBox="0 0 35 35" fill="none" xmlns="http://www.w3.org/2000/svg">
<path fill-rule="evenodd" clip-rule="evenodd" d="M8.02084 26.25C8.02084 26.0567 8.09767 25.8712 8.23441 25.7344C8.37116 25.5977 8.55662 25.5209 8.75001 25.5209H26.25C26.4434 25.5209 26.6289 25.5977 26.7656 25.7344C26.9024 25.8712 26.9792 26.0567 26.9792 26.25C26.9792 26.4434 26.9024 26.6289 26.7656 26.7656C26.6289 26.9024 26.4434 26.9792 26.25 26.9792H8.75001C8.55662 26.9792 8.37116 26.9024 8.23441 26.7656C8.09767 26.6289 8.02084 26.4434 8.02084 26.25Z" fill="white"/>
<path d="M13.125 16.7709H10.2083C9.80562 16.7709 9.47916 17.0973 9.47916 17.5V26.25C9.47916 26.6527 9.80562 26.9792 10.2083 26.9792H13.125C13.5277 26.9792 13.8542 26.6527 13.8542 26.25V17.5C13.8542 17.0973 13.5277 16.7709 13.125 16.7709Z" fill="white"/>
<path d="M18.9583 8.02087H16.0417C15.639 8.02087 15.3125 8.34733 15.3125 8.75004V26.25C15.3125 26.6527 15.639 26.9792 16.0417 26.9792H18.9583C19.361 26.9792 19.6875 26.6527 19.6875 26.25V8.75004C19.6875 8.34733 19.361 8.02087 18.9583 8.02087Z" fill="white"/>
<path d="M24.7917 12.3959H21.875C21.4723 12.3959 21.1458 12.7223 21.1458 13.125V26.25C21.1458 26.6527 21.4723 26.9792 21.875 26.9792H24.7917C25.1944 26.9792 25.5208 26.6527 25.5208 26.25V13.125C25.5208 12.7223 25.1944 12.3959 24.7917 12.3959Z" fill="white"/>
</svg>
